<svg width="30" height="30" viewBox="0 0 30 30" fill="none" xmlns="http://www.w3.org/2000/svg">
<path d="M24.0174 28.6183C22.2674 30.1808 20.3567 29.9341 18.5174 29.194C16.571 28.4374 14.7852 28.4045 12.7317 29.194C10.1602 30.2137 8.8031 29.9177 7.26738 28.6183C-1.4469 20.3453 -0.161188 7.74661 9.73167 7.28608C12.1424 7.40121 13.821 8.50319 15.2317 8.60187C17.3388 8.20713 19.3567 7.07227 21.6067 7.22029C24.3031 7.41766 26.3388 8.4045 27.6781 10.1808C22.1067 13.2565 23.4281 20.0163 28.5352 21.9078C27.5174 24.3749 26.196 26.8256 23.9995 28.6348L24.0174 28.6183ZM15.0531 7.1874C14.7852 3.51963 18.0174 0.493318 21.7317 0.197266C22.2495 4.44069 17.5531 7.59858 15.0531 7.1874Z" fill="#031638"/>
</svg>
