<svg width="157" height="105" viewBox="0 0 157 105" fill="none" xmlns="http://www.w3.org/2000/svg">
<path d="M3 64.3243V9.76219C3 7.4187 6.17845 6.70333 7.18249 8.82085L33.5 64.3243M33.5 64.3243L59.8175 8.82085C60.8216 6.70333 64 7.40165 64 9.74515C64 18.6866 64 35.1346 64 64.3243C64 118.146 26.5867 110.838 33.5 64.3243Z" stroke="#031638" stroke-width="1.5"/>
<path d="M20.7686 37.6957C32.1135 61.3479 34.8351 61.7174 45.9402 37.6957" stroke="#031638"/>
<circle cx="64" cy="59" r="5.5" fill="#031638" stroke="white"/>
<circle cx="64" cy="59" r="3" fill="white"/>
<line x1="99.5" y1="23" x2="99.5" y2="51" stroke="#031638" stroke-width="3"/>
<path d="M147.072 51.36C145.584 51.36 144.264 50.988 143.112 50.244C141.96 49.5 141.048 48.48 140.376 47.184C139.728 45.864 139.404 44.364 139.404 42.684C139.404 41.004 139.74 39.516 140.412 38.22C141.084 36.924 142.02 35.916 143.22 35.196C144.42 34.452 145.8 34.08 147.36 34.08C148.872 34.08 150.192 34.428 151.32 35.124C152.472 35.82 153.36 36.792 153.984 38.04C154.632 39.264 154.956 40.68 154.956 42.288C154.956 42.432 154.944 42.588 154.92 42.756C154.92 42.924 154.908 43.068 154.884 43.188H140.592V41.568H153.48L152.688 42.684C152.736 42.564 152.784 42.408 152.832 42.216C152.904 42 152.94 41.796 152.94 41.604C152.94 40.476 152.688 39.468 152.184 38.58C151.704 37.692 151.044 36.996 150.204 36.492C149.364 35.988 148.416 35.736 147.36 35.736C146.136 35.736 145.068 36.024 144.156 36.6C143.268 37.152 142.572 37.944 142.068 38.976C141.564 39.984 141.312 41.184 141.312 42.576C141.312 43.992 141.552 45.228 142.032 46.284C142.536 47.34 143.232 48.156 144.12 48.732C145.032 49.308 146.088 49.596 147.288 49.596C148.56 49.596 149.664 49.32 150.6 48.768C151.56 48.216 152.412 47.352 153.156 46.176L154.668 47.148C153.732 48.588 152.64 49.656 151.392 50.352C150.168 51.024 148.728 51.36 147.072 51.36Z" fill="#031638"/>
<path d="M128.808 46.284C129.048 46.884 129.372 47.436 129.78 47.94C130.188 48.444 130.704 48.852 131.328 49.164C131.976 49.476 132.732 49.632 133.596 49.632C134.604 49.632 135.408 49.38 136.008 48.876C136.632 48.348 136.944 47.628 136.944 46.716C136.944 46.044 136.752 45.492 136.368 45.06C135.984 44.604 135.48 44.232 134.856 43.944C134.232 43.632 133.56 43.356 132.84 43.116C132.072 42.828 131.328 42.504 130.608 42.144C129.888 41.784 129.288 41.304 128.808 40.704C128.352 40.08 128.124 39.276 128.124 38.292C128.124 37.356 128.352 36.576 128.808 35.952C129.288 35.328 129.9 34.872 130.644 34.584C131.412 34.272 132.228 34.116 133.092 34.116C134.028 34.116 134.868 34.272 135.612 34.584C136.356 34.896 136.992 35.304 137.52 35.808C138.048 36.312 138.456 36.876 138.744 37.5L137.196 38.436C136.812 37.716 136.272 37.092 135.576 36.564C134.88 36.036 133.98 35.772 132.876 35.772C132.06 35.772 131.364 35.976 130.788 36.384C130.236 36.792 129.96 37.392 129.96 38.184C129.96 38.832 130.14 39.372 130.5 39.804C130.86 40.212 131.34 40.548 131.94 40.812C132.54 41.076 133.176 41.328 133.848 41.568C134.736 41.904 135.552 42.276 136.296 42.684C137.064 43.092 137.676 43.596 138.132 44.196C138.612 44.796 138.852 45.564 138.852 46.5C138.852 47.94 138.348 49.116 137.34 50.028C136.356 50.916 135.072 51.36 133.488 51.36C132.336 51.36 131.328 51.156 130.464 50.748C129.624 50.34 128.94 49.812 128.412 49.164C127.908 48.516 127.536 47.844 127.296 47.148L128.808 46.284Z" fill="#031638"/>
<path d="M115.132 46.032C115.132 46.848 115.312 47.532 115.672 48.084C116.056 48.636 116.56 49.056 117.184 49.344C117.832 49.608 118.54 49.74 119.308 49.74C120.244 49.74 121.096 49.524 121.864 49.092C122.656 48.66 123.292 48.024 123.772 47.184C124.252 46.344 124.492 45.312 124.492 44.088L124.924 45.672C124.924 46.968 124.612 48.036 123.988 48.876C123.364 49.716 122.584 50.34 121.648 50.748C120.712 51.156 119.764 51.36 118.804 51.36C117.868 51.36 116.968 51.168 116.104 50.784C115.24 50.376 114.544 49.788 114.016 49.02C113.488 48.252 113.224 47.28 113.224 46.104C113.224 44.496 113.776 43.224 114.88 42.288C116.008 41.352 117.532 40.884 119.452 40.884C120.532 40.884 121.456 41.016 122.224 41.28C123.016 41.52 123.664 41.796 124.168 42.108C124.672 42.42 125.032 42.684 125.248 42.9V44.088C124.432 43.512 123.556 43.092 122.62 42.828C121.708 42.54 120.748 42.396 119.74 42.396C118.804 42.396 117.988 42.528 117.292 42.792C116.62 43.056 116.092 43.452 115.708 43.98C115.324 44.508 115.132 45.192 115.132 46.032ZM115.204 37.464L114.268 36.06C114.892 35.628 115.696 35.196 116.68 34.764C117.688 34.308 118.924 34.08 120.388 34.08C121.636 34.08 122.704 34.284 123.592 34.692C124.48 35.1 125.164 35.688 125.644 36.456C126.124 37.224 126.364 38.16 126.364 39.264V51H124.492V39.516C124.492 39.036 124.42 38.58 124.276 38.148C124.132 37.692 123.892 37.284 123.556 36.924C123.244 36.564 122.812 36.276 122.26 36.06C121.708 35.844 121.036 35.736 120.244 35.736C119.428 35.736 118.696 35.832 118.048 36.024C117.4 36.216 116.836 36.444 116.356 36.708C115.9 36.972 115.516 37.224 115.204 37.464Z" fill="#031638"/>
<path d="M99.1308 51V49.76H112.851V51H99.1308ZM99.1308 24.24V23H112.851V24.24H99.1308ZM99.1308 36.16V34.92H112.051V36.16H99.1308ZM98.5308 23H99.8508V51H98.5308V23Z" fill="#031638"/>
<path d="M98.552 22.92H100.424V51H98.552V22.92ZM84.404 42.72C84.404 40.92 84.764 39.384 85.484 38.112C86.204 36.816 87.164 35.82 88.364 35.124C89.588 34.428 90.932 34.08 92.396 34.08C93.836 34.08 95.072 34.464 96.104 35.232C97.136 35.976 97.94 36.996 98.516 38.292C99.116 39.588 99.416 41.064 99.416 42.72C99.416 44.352 99.116 45.828 98.516 47.148C97.94 48.444 97.136 49.476 96.104 50.244C95.072 50.988 93.836 51.36 92.396 51.36C90.932 51.36 89.588 51.012 88.364 50.316C87.164 49.62 86.204 48.624 85.484 47.328C84.764 46.032 84.404 44.496 84.404 42.72ZM86.312 42.72C86.312 44.16 86.588 45.396 87.14 46.428C87.716 47.46 88.484 48.252 89.444 48.804C90.428 49.332 91.496 49.596 92.648 49.596C93.68 49.596 94.64 49.296 95.528 48.696C96.44 48.096 97.172 47.28 97.724 46.248C98.276 45.216 98.552 44.04 98.552 42.72C98.552 41.4 98.276 40.224 97.724 39.192C97.172 38.16 96.44 37.344 95.528 36.744C94.64 36.144 93.68 35.844 92.648 35.844C91.496 35.844 90.428 36.12 89.444 36.672C88.484 37.2 87.716 37.98 87.14 39.012C86.588 40.044 86.312 41.28 86.312 42.72Z" fill="#031638"/>
<path d="M75.072 51.36C73.584 51.36 72.264 50.988 71.112 50.244C69.96 49.5 69.048 48.48 68.376 47.184C67.728 45.864 67.404 44.364 67.404 42.684C67.404 41.004 67.74 39.516 68.412 38.22C69.084 36.924 70.02 35.916 71.22 35.196C72.42 34.452 73.8 34.08 75.36 34.08C76.872 34.08 78.192 34.428 79.32 35.124C80.472 35.82 81.36 36.792 81.984 38.04C82.632 39.264 82.956 40.68 82.956 42.288C82.956 42.432 82.944 42.588 82.92 42.756C82.92 42.924 82.908 43.068 82.884 43.188H68.592V41.568H81.48L80.688 42.684C80.736 42.564 80.784 42.408 80.832 42.216C80.904 42 80.94 41.796 80.94 41.604C80.94 40.476 80.688 39.468 80.184 38.58C79.704 37.692 79.044 36.996 78.204 36.492C77.364 35.988 76.416 35.736 75.36 35.736C74.136 35.736 73.068 36.024 72.156 36.6C71.268 37.152 70.572 37.944 70.068 38.976C69.564 39.984 69.312 41.184 69.312 42.576C69.312 43.992 69.552 45.228 70.032 46.284C70.536 47.34 71.232 48.156 72.12 48.732C73.032 49.308 74.088 49.596 75.288 49.596C76.56 49.596 77.664 49.32 78.6 48.768C79.56 48.216 80.412 47.352 81.156 46.176L82.668 47.148C81.732 48.588 80.64 49.656 79.392 50.352C78.168 51.024 76.728 51.36 75.072 51.36Z" fill="#031638"/>
</svg>
