<svg width="31" height="30" viewBox="0 0 31 30" fill="none" xmlns="http://www.w3.org/2000/svg">
<g clip-path="url(#clip0_169_787)">
<path d="M10.9508 0.986669C7.95335 2.02652 5.36834 4.00018 3.57548 6.61777C1.78262 9.23535 0.876419 12.3589 0.989976 15.5296C1.10353 18.7002 2.23087 21.7509 4.20638 24.2336C6.1819 26.7162 8.90148 28.4999 11.9657 29.3226C14.4499 29.9636 17.0526 29.9918 19.55 29.4046C21.8125 28.8964 23.9042 27.8094 25.6203 26.25C27.4065 24.5773 28.7029 22.4495 29.3703 20.0953C30.0958 17.5351 30.2249 14.8428 29.7477 12.225H15.7977V18.0117H23.8766C23.7151 18.9346 23.3691 19.8155 22.8593 20.6016C22.3495 21.3877 21.6863 22.0629 20.9094 22.5867C19.9229 23.2392 18.8108 23.6783 17.6446 23.8757C16.4749 24.0932 15.2752 24.0932 14.1055 23.8757C12.92 23.6306 11.7985 23.1413 10.8125 22.439C9.22851 21.3177 8.03912 19.7248 7.4141 17.8875C6.7785 16.0157 6.7785 13.9865 7.4141 12.1148C7.859 10.8028 8.59449 9.60824 9.56566 8.62026C10.677 7.46889 12.0841 6.64588 13.6324 6.24154C15.1808 5.83719 16.8106 5.86713 18.343 6.32807C19.5401 6.69556 20.6348 7.33762 21.5399 8.20308C22.4508 7.29683 23.3602 6.38823 24.268 5.47729C24.7368 4.98745 25.2477 4.52104 25.7094 4.01948C24.3279 2.73388 22.7063 1.73352 20.9375 1.07573C17.7165 -0.093824 14.1922 -0.125255 10.9508 0.986669Z" fill="white"/>
<path d="M10.9504 0.986831C14.1915 -0.125848 17.7158 -0.0952447 20.9371 1.07355C22.7062 1.73581 24.3271 2.74098 25.7066 4.03136C25.2379 4.53293 24.7434 5.00168 24.2652 5.48918C23.3559 6.39699 22.4473 7.30168 21.5395 8.20324C20.6344 7.33778 19.5397 6.69572 18.3426 6.32824C16.8106 5.86568 15.1809 5.83401 13.6322 6.2367C12.0834 6.63939 10.6755 7.46088 9.56289 8.61105C8.59172 9.59903 7.85623 10.7936 7.41133 12.1056L2.55273 8.34386C4.29182 4.89518 7.30293 2.2572 10.9504 0.986831Z" fill="#E33629"/>
<path d="M1.26425 12.0703C1.52539 10.7761 1.95895 9.52272 2.55331 8.34375L7.41191 12.1148C6.77632 13.9866 6.77632 16.0158 7.41191 17.8875C5.79316 19.1375 4.17363 20.3938 2.55331 21.6562C1.06539 18.6945 0.611593 15.3199 1.26425 12.0703Z" fill="#F8BD00"/>
<path d="M15.7979 12.2227H29.7479C30.2251 14.8405 30.096 17.5328 29.3706 20.093C28.7032 22.4472 27.4067 24.575 25.6206 26.2477C24.0526 25.0242 22.4776 23.8102 20.9096 22.5867C21.687 22.0624 22.3505 21.3865 22.8604 20.5995C23.3702 19.8126 23.7159 18.9308 23.8768 18.007H15.7979C15.7956 16.0805 15.7979 14.1516 15.7979 12.2227Z" fill="#587DBD"/>
<path d="M2.55078 21.6562C4.17109 20.4062 5.79062 19.15 7.40937 17.8875C8.03564 19.7254 9.22673 21.3185 10.8125 22.439C11.8016 23.1381 12.9255 23.6234 14.1125 23.864C15.2822 24.0815 16.4819 24.0815 17.6516 23.864C18.8178 23.6666 19.9299 23.2275 20.9164 22.575C22.4844 23.7984 24.0594 25.0125 25.6273 26.2359C23.9115 27.7962 21.8197 28.884 19.557 29.3929C17.0596 29.98 14.4569 29.9519 11.9727 29.3109C10.0079 28.7863 8.17268 27.8615 6.58203 26.5945C4.89842 25.2578 3.52333 23.5733 2.55078 21.6562Z" fill="#319F43"/>
</g>
<defs>
<clipPath id="clip0_169_787">
<rect width="30" height="30" fill="white" transform="translate(0.5)"/>
</clipPath>
</defs>
</svg>
