<svg width="172" height="102" viewBox="0 0 172 102" fill="none" xmlns="http://www.w3.org/2000/svg">
<path d="M3 60.5405V9.52503C3 7.1943 6.15139 6.46736 7.17235 8.56258L32.5 60.5405M32.5 60.5405L57.8277 8.56257C58.8486 6.46735 62 7.18689 62 9.51761C62 18.0087 62 33.4398 62 60.5405C62 111.196 25.8133 104.318 32.5 60.5405Z" stroke="white" stroke-width="5"/>
<path d="M20.1855 35.4783C31.1586 57.7391 33.7909 58.087 44.5319 35.4783" stroke="white" stroke-width="4.5"/>
<circle cx="62" cy="62" r="5.5" fill="white" stroke="#0E2755"/>
<circle cx="62" cy="62" r="3" fill="#0E2755"/>
<line x1="119.6" y1="34.4" x2="98.7996" y2="34.4" stroke="white" stroke-width="3"/>
<path d="M162.116 61.36C160.316 61.36 158.744 61 157.4 60.28C156.056 59.56 155.012 58.564 154.268 57.292C153.548 55.996 153.188 54.472 153.188 52.72C153.188 50.944 153.548 49.42 154.268 48.148C155.012 46.852 156.056 45.856 157.4 45.16C158.744 44.44 160.328 44.08 162.152 44.08C163.976 44.08 165.524 44.416 166.796 45.088C168.092 45.736 169.076 46.696 169.748 47.968C170.42 49.216 170.756 50.728 170.756 52.504C170.756 52.72 170.744 52.948 170.72 53.188C170.72 53.428 170.708 53.62 170.684 53.764H155.852V50.884H166.616L165.356 52.54C165.452 52.396 165.536 52.204 165.608 51.964C165.704 51.7 165.752 51.484 165.752 51.316C165.752 50.5 165.596 49.804 165.284 49.228C164.996 48.652 164.576 48.196 164.024 47.86C163.472 47.524 162.824 47.356 162.08 47.356C161.168 47.356 160.4 47.56 159.776 47.968C159.176 48.352 158.708 48.94 158.372 49.732C158.06 50.5 157.892 51.46 157.868 52.612C157.868 53.716 158.024 54.652 158.336 55.42C158.672 56.188 159.164 56.776 159.812 57.184C160.46 57.592 161.24 57.796 162.152 57.796C163.184 57.796 164.06 57.604 164.78 57.22C165.524 56.812 166.136 56.212 166.616 55.42L170.684 56.68C169.82 58.24 168.668 59.416 167.228 60.208C165.812 60.976 164.108 61.36 162.116 61.36Z" fill="white"/>
<path d="M140.132 55.276C140.828 55.924 141.476 56.452 142.076 56.86C142.676 57.244 143.24 57.532 143.768 57.724C144.32 57.916 144.836 58.012 145.316 58.012C145.94 58.012 146.42 57.88 146.756 57.616C147.092 57.328 147.26 56.944 147.26 56.464C147.26 56.032 147.116 55.672 146.828 55.384C146.564 55.072 146.168 54.796 145.64 54.556C145.112 54.316 144.44 54.064 143.624 53.8C142.856 53.512 142.112 53.176 141.392 52.792C140.672 52.384 140.072 51.856 139.592 51.208C139.136 50.536 138.908 49.684 138.908 48.652C138.908 47.668 139.172 46.84 139.7 46.168C140.228 45.472 140.936 44.956 141.824 44.62C142.736 44.26 143.744 44.08 144.848 44.08C145.784 44.08 146.66 44.2 147.476 44.44C148.292 44.68 149.048 45.004 149.744 45.412C150.44 45.796 151.052 46.252 151.58 46.78L149.528 49.66C148.928 49.012 148.208 48.484 147.368 48.076C146.552 47.668 145.748 47.464 144.956 47.464C144.428 47.464 144.008 47.572 143.696 47.788C143.408 47.98 143.264 48.28 143.264 48.688C143.264 49.048 143.408 49.372 143.696 49.66C144.008 49.924 144.44 50.164 144.992 50.38C145.568 50.596 146.216 50.86 146.936 51.172C147.824 51.508 148.64 51.892 149.384 52.324C150.152 52.732 150.764 53.248 151.22 53.872C151.676 54.496 151.904 55.312 151.904 56.32C151.904 57.976 151.364 59.272 150.284 60.208C149.204 61.12 147.716 61.576 145.82 61.576C144.644 61.576 143.564 61.42 142.58 61.108C141.62 60.796 140.744 60.388 139.952 59.884C139.184 59.356 138.488 58.792 137.864 58.192L140.132 55.276Z" fill="white"/>
<path d="M125.616 55.852C125.616 56.332 125.736 56.752 125.976 57.112C126.216 57.448 126.54 57.712 126.948 57.904C127.38 58.072 127.848 58.156 128.352 58.156C129.072 58.156 129.72 58.012 130.296 57.724C130.872 57.412 131.34 56.98 131.7 56.428C132.06 55.852 132.24 55.168 132.24 54.376L132.816 56.536C132.816 57.592 132.516 58.48 131.916 59.2C131.34 59.92 130.584 60.46 129.648 60.82C128.736 61.18 127.776 61.36 126.768 61.36C125.736 61.36 124.776 61.156 123.888 60.748C123 60.34 122.28 59.752 121.728 58.984C121.2 58.192 120.936 57.232 120.936 56.104C120.936 54.496 121.5 53.224 122.628 52.288C123.756 51.352 125.352 50.884 127.416 50.884C128.472 50.884 129.396 50.992 130.188 51.208C131.004 51.424 131.688 51.688 132.24 52C132.792 52.312 133.188 52.612 133.428 52.9V55.06C132.78 54.58 132.048 54.22 131.232 53.98C130.44 53.74 129.6 53.62 128.712 53.62C127.992 53.62 127.404 53.716 126.948 53.908C126.492 54.076 126.156 54.328 125.94 54.664C125.724 54.976 125.616 55.372 125.616 55.852ZM123.816 49.12L122.088 45.952C122.952 45.496 124.008 45.064 125.256 44.656C126.504 44.224 127.896 44.008 129.432 44.008C130.848 44.008 132.108 44.212 133.212 44.62C134.316 45.028 135.18 45.628 135.804 46.42C136.428 47.188 136.74 48.136 136.74 49.264V61H132.24V50.236C132.24 49.78 132.168 49.396 132.024 49.084C131.88 48.748 131.652 48.472 131.34 48.256C131.052 48.04 130.704 47.884 130.296 47.788C129.888 47.692 129.432 47.644 128.928 47.644C128.16 47.644 127.428 47.728 126.732 47.896C126.036 48.064 125.436 48.268 124.932 48.508C124.428 48.748 124.056 48.952 123.816 49.12Z" fill="white"/>
<path d="M105.501 61V56.16H119.621V61H105.501ZM105.501 37.84V33H119.621V37.84H105.501ZM105.501 48.52V43.76H118.821V48.52H105.501ZM101.821 33H107.341V61H101.821V33Z" fill="white"/>
<path d="M98.796 32.92H103.476V61H98.796V32.92ZM85.188 52.72C85.188 50.872 85.56 49.312 86.304 48.04C87.048 46.744 88.032 45.76 89.256 45.088C90.48 44.416 91.776 44.08 93.144 44.08C94.536 44.08 95.76 44.428 96.816 45.124C97.896 45.82 98.736 46.816 99.336 48.112C99.96 49.384 100.272 50.92 100.272 52.72C100.272 54.496 99.96 56.032 99.336 57.328C98.736 58.624 97.896 59.62 96.816 60.316C95.76 61.012 94.536 61.36 93.144 61.36C91.776 61.36 90.48 61.024 89.256 60.352C88.032 59.68 87.048 58.696 86.304 57.4C85.56 56.104 85.188 54.544 85.188 52.72ZM90.012 52.72C90.012 53.704 90.216 54.556 90.624 55.276C91.032 55.996 91.584 56.548 92.28 56.932C92.976 57.316 93.72 57.508 94.512 57.508C95.208 57.508 95.88 57.328 96.528 56.968C97.2 56.584 97.74 56.032 98.148 55.312C98.58 54.592 98.796 53.728 98.796 52.72C98.796 51.712 98.58 50.848 98.148 50.128C97.74 49.408 97.2 48.868 96.528 48.508C95.88 48.124 95.208 47.932 94.512 47.932C93.72 47.932 92.976 48.124 92.28 48.508C91.584 48.892 91.032 49.444 90.624 50.164C90.216 50.884 90.012 51.736 90.012 52.72Z" fill="white"/>
<path d="M75.116 61.36C73.316 61.36 71.744 61 70.4 60.28C69.056 59.56 68.012 58.564 67.268 57.292C66.548 55.996 66.188 54.472 66.188 52.72C66.188 50.944 66.548 49.42 67.268 48.148C68.012 46.852 69.056 45.856 70.4 45.16C71.744 44.44 73.328 44.08 75.152 44.08C76.976 44.08 78.524 44.416 79.796 45.088C81.092 45.736 82.076 46.696 82.748 47.968C83.42 49.216 83.756 50.728 83.756 52.504C83.756 52.72 83.744 52.948 83.72 53.188C83.72 53.428 83.708 53.62 83.684 53.764H68.852V50.884H79.616L78.356 52.54C78.452 52.396 78.536 52.204 78.608 51.964C78.704 51.7 78.752 51.484 78.752 51.316C78.752 50.5 78.596 49.804 78.284 49.228C77.996 48.652 77.576 48.196 77.024 47.86C76.472 47.524 75.824 47.356 75.08 47.356C74.168 47.356 73.4 47.56 72.776 47.968C72.176 48.352 71.708 48.94 71.372 49.732C71.06 50.5 70.892 51.46 70.868 52.612C70.868 53.716 71.024 54.652 71.336 55.42C71.672 56.188 72.164 56.776 72.812 57.184C73.46 57.592 74.24 57.796 75.152 57.796C76.184 57.796 77.06 57.604 77.78 57.22C78.524 56.812 79.136 56.212 79.616 55.42L83.684 56.68C82.82 58.24 81.668 59.416 80.228 60.208C78.812 60.976 77.108 61.36 75.116 61.36Z" fill="white"/>
</svg>
