<svg width="1280" height="1280" viewBox="0 0 1280 1280" fill="none" xmlns="http://www.w3.org/2000/svg">
<path d="M0 131.25H1280V1148.75H0V131.25Z" fill="#031638"/>
<path d="M433.125 523.75L439.375 526.25L448.75 531.875L455.625 538.125L460 545L461.875 550L466.875 538.75L471.875 531.875L473.75 530H475L477.5 543.125V555.625L474.375 561.25L471.25 565H470L470.625 559.375L471.25 556.25V543.75L468.75 549.375L466.875 557.5V563.75L471.875 578.75L478.75 593.125L481.25 583.125L486.875 571.25L490 566.25L491.25 567.5L495.625 580.625L497.5 589.375V595L495.625 601.25L491.875 607.5L490 608.75L490.625 600V591.25L489.375 582.5H488.125L486.25 592.5V605.625L488.75 611.25L496.875 622.5L505.625 633.125L507.5 634.375V620L510.625 606.25L513.125 598.125L515.625 599.375L523.75 613.125L528.75 623.125L530.625 631.875L530 640L527.5 646.875L525 649.375L523.75 637.5L521.25 628.125L518.125 619.375L517.5 618.75L516.875 620V633.75L519.375 644.375L522.5 649.375L528.75 655L539.375 662.5L549.375 668.75L555.625 672.5L551.25 663.125L548.75 653.75L547.5 643.125V634.375L550 635.625L558.75 641.875L566.25 647.5L573.75 655L578.75 663.75L580.625 671.875V681.25L577.5 678.125L570.625 667.5L564.375 659.375L560.625 655H559.375L562.5 665L567.5 673.75L574.375 681.25L583.125 685L592.5 687.5L593.125 682.5L596.875 681.25L601.875 677.5L611.875 680L624.375 681.875L631.25 682.5H651.25L666.25 681.25L678.125 679.375L683.75 678.125H686.875L689.375 681.25L693.75 682.5L695.625 686.875L701.875 685.625L711.875 681.875L716.875 677.5L722.5 669.375L726.25 661.25L728.75 653.75L723.75 658.125L720 662.5L711.25 675.625L708.125 680.625H706.875L706.25 677.5L706.875 668.75L708.75 662.5L712.5 656.25L718.125 650L725.625 643.75L734.375 637.5L740 633.75V642.5L738.125 655.625L735 666.25L732.5 671.875L745 664.375L755.625 656.875L761.875 651.875L765 648.75L767.5 645L770 636.25L770.625 632.5L771.25 618.75L768.75 621.25L765.625 629.375L762.5 643.125L761.875 648.75H760.625L757.5 641.875L756.25 636.25V631.25L758.75 621.875L765.625 609.375L771.875 599.375L773.125 598.125L775 600.625L778.125 611.25L779.375 617.5L780 623.75V635L787.5 626.25L793.75 618.125L799.375 609.375L801.25 602.5V593.75L798.75 583.125L797.5 582.5L796.875 590.625V608.125L793.75 605.625L790 598.125L789.375 591.875L791.25 581.875L796.25 566.875L798.125 567.5L802.5 575L806.875 586.25L808.75 592.5L815.625 578.125L820 565V555L817.5 546.875L816.25 544.375L815 543.75L816.25 557.5L816.875 565L814.375 563.75L810.625 558.125L809.375 553.75V545L812.5 530H814.375L818.75 536.25L823.75 545.625L825 549.375L829.375 541.25L835 535L841.25 530L852.5 523.75H853.75L853.125 528.125L848.75 542.5L845 549.375L841.25 553.75L835 557.5L831.25 558.125L833.125 555L836.875 550.625L842.5 541.25L844.375 536.875L840 539.375L833.75 546.25L827.5 556.875L820.625 576.875L820 578.125L823.75 576.875L832.5 572.5L840.625 570L847.5 568.75L846.25 572.5L840 585L834.375 593.125L828.75 598.125L821.875 601.25L816.875 602.5L814.375 601.875L823.75 593.125L830 586.25L833.75 580.625L826.25 584.375L820 589.375L815.625 593.125L808.75 602.5L800.625 616.25L796.25 621.875L804.375 620L812.5 618.75H835V620L831.875 622.5L827.5 627.5L818.75 636.875L811.875 642.5L805.625 646.25L799.375 648.125H788.125L783.75 647.5V646.25L798.75 639.375L806.875 634.375L813.125 629.375L813.75 628.75L806.875 629.375L796.875 632.5L786.875 637.5L776.875 645L767.5 653.125L758.125 660.625L754.375 663.125L765.625 663.75L778.125 666.25L793.125 671.25L803.75 676.25V677.5L780.625 688.75L770.625 692.5L763.125 694.375H751.25L741.875 691.875L735 688.125L732.5 685.625L753.125 684.375L765.625 681.875L775 678.75H776.25V677.5L768.75 676.25L764.375 675.625H754.375L742.5 676.875L729.375 680L719.375 683.75L708.125 688.75L698.75 691.875H696.875L697.5 693.125V696.875L694.375 699.375L693.125 703.75L685 706.25L670 708.75L654.375 710H628.125L613.125 708.125L595 704.375L593.125 703.125L592.5 698.75L589.375 696.25L590 692.5L574.375 686.875L560 680.625L548.125 677.5L540 676.25L532.5 675.625H522.5L512.5 677.5H510.625V678.75L513.75 679.375L526.875 683.125L533.75 684.375L554.375 685.625L551.25 688.75L543.75 692.5L536.875 694.375H523.75L512.5 691.25L496.875 683.75L483.125 677.5L485 675.625L495.625 670.625L508.75 666.25L517.5 664.375L522.5 663.75H533.125L531.25 661.875L523.75 656.25L517.5 650.625L506.875 642.5L500.625 638.125L488.75 631.875L477.5 628.75L473.75 628.125L476.25 631.25L485.625 638.125L497.5 643.75L503.125 646.25V647.5L498.125 648.125H488.125L481.875 646.25L474.375 641.875L465 633.125L460 628.125L455.625 623.125L451.875 618.75H475.625L488.75 621.25H490.625L485 613.75L476.875 600L470 591.875L464.375 586.875L457.5 582.5L453.75 580.625L457.5 586.25L465 595L471.25 600.625L472.5 601.25V602.5L467.5 601.875L460.625 599.375L455 595.625L450.625 590.625L446.25 583.125L440 570L440.625 568.75L454.375 572.5L465 577.5L467.5 578.75L463.125 566.875L460.625 559.375L455 548.75L447.5 539.375L443.125 536.875L448.125 547.5L453.75 555L455.625 558.125L451.875 557.5L445.625 553.75L441.875 549.375L438.125 541.875L433.125 525V523.75Z" fill="url(#paint0_radial_35_2)"/>
<path d="M636.25 354.375H652.5L667.5 356.25L681.875 359.375L694.375 363.125L707.5 368.75L719.375 375L729.375 381.25L738.125 388.125L745.625 395L750.625 399.375L758.125 407.5L765.625 417.5L771.875 426.875L774.375 431.25V433.125L761.25 440.625L750 446.875L739.375 452.5L729.375 457.5L720 462.5L705 471.25L695 477.5L686.875 483.75L685 485L686.25 481.875L691.25 476.875L703.125 468.125L716.25 460L728.125 453.75L743.125 444.375L751.875 438.125L756.875 432.5L759.375 427.5L760 424.375L748.75 431.25L733.125 440L721.875 446.25L704.375 456.25L691.875 464.375L684.375 470L678.125 475.625L673.125 482.5L670.625 488.75L670 498.125L673.125 518.75L672.5 528.125L670.625 533.125L665.625 539.375L660 544.375L652.5 548.125H651.25V531.25L653.125 529.375L658.125 526.875V523.75L655.625 522.5L656.25 520L659.375 515L660 512.5V508.125L657.5 501.875L653.75 497.5L648.75 495L646.875 494.375H640L633.75 497.5L630.625 500L628.125 505L627.5 506.875V513.125L629.375 518.125L631.25 520.625V522.5L628.75 524.375L629.375 526.875L635 530L636.25 533.125V548.125L630.625 546.25L624.375 541.875L619.375 536.875L615.625 530.625L614.375 526.25V516.25L616.875 501.875V490L614.375 483.125L609.375 476.25L603.125 470L592.5 462.5L576.875 453.125L561.875 444.375L546.875 436.25L533.75 428.75L527.5 424.375L530 431.25L533.75 436.875L540 441.875L553.75 450.625L562.5 455.625L576.25 463.125L585.625 469.375L595.625 476.875L601.875 483.125L603.125 485.625L601.25 485V483.75L598.75 482.5L591.25 476.875L573.75 466.25L558.125 457.5L536.875 446.875L523.75 439.375L513.75 433.75L512.5 431.25L521.875 416.25L530 406.25L537.5 398.125L545.625 390.625L555.625 382.5L567.5 375L580 368.125L595.625 361.875L608.125 358.125L622.5 355.625L636.25 354.375Z" fill="url(#paint1_linear_35_2)"/>
<path d="M466.875 445.625L469.375 446.875L473.75 456.875L479.375 463.125L487.5 469.375L496.25 474.375L509.375 480L530 488.125L547.5 493.125L564.375 497.5L571.875 499.375V500H566.875L531.25 493.75L508.75 488.125L490.625 482.5L482.5 477.5L476.25 471.875L472.5 466.25L469.375 458.75L466.875 446.25V445.625Z" fill="url(#paint2_linear_35_2)"/>
<path d="M464.375 401.875H465L466.875 411.25L471.875 421.25L478.75 428.75L485 434.375L497.5 443.125L511.25 451.875L523.125 458.75L538.75 467.5L553.125 475L566.875 481.875L564.375 482.5L553.125 478.125L533.75 471.25L505 457.5L491.875 450.625L483.75 444.375L476.25 437.5L471.875 432.5L466.875 422.5L464.375 410V401.875Z" fill="url(#paint3_linear_35_2)"/>
<path d="M819.375 445H820V449.375L817.5 459.375L814.375 466.875L810.625 472.5L805 477.5L796.25 482.5L781.25 487.5L764.375 491.875L746.875 495.625L719.375 500H714.375L716.875 498.75L744.375 491.875L765 485L785.625 476.875L798.75 470L806.25 464.375L811.25 460L816.25 451.25L819.375 445Z" fill="url(#paint4_linear_35_2)"/>
<path d="M822.5 403.75H823.125L822.5 411.875L820.625 421.25L818.125 428.125L813.75 434.375L803.75 444.375L794.375 451.25L777.5 460L757.5 469.375L741.25 475.625L721.875 482.5L720 481.875L746.25 468.75L775 452.5L786.875 445L801.25 435L810 427.5L815.625 420.625L820 411.875L822.5 403.75Z" fill="url(#paint5_linear_35_2)"/>
<path d="M478.75 488.125L483.125 489.375L490.625 497.5L495.625 501.25L510.625 506.25L528.75 509.375L545 511.25L575 513.75L579.375 514.375L578.75 515.625L551.875 516.25L538.125 516.875H507.5L498.125 515.625L500 518.75L504.375 523.125L513.75 528.75L520.625 531.25L524.375 531.875H546.25L562.5 530.625L585.625 527.5H592.5L591.25 528.75L577.5 532.5L556.875 536.875L540.625 539.375L528.75 540.625H524.375L527.5 544.375L533.75 548.125L542.5 550.625L545 551.25H557.5L568.125 549.375L601.25 540L603.125 540.625L588.75 547.5L573.125 553.125L567.5 555L564.375 555.625L565.625 556.875L573.125 558.75L577.5 559.375H585L594.375 557.5L608.125 552.5L614.375 550.625L611.875 553.125L602.5 558.75L595 563.75L593.75 565.625H605.625L614.375 561.875L626.25 554.375L635 550L636.875 550.625L638.75 621.25L636.25 620.625L630 615L625 610.625L621.25 606.25L618.125 600L618.75 596.875L625 591.875L628.75 585.625V580L628.125 578.125L626.25 577.5L615 581.25L606.875 582.5L602.5 586.25L600.625 591.875L601.25 600L603.75 606.875L607.5 613.125L614.375 620L623.125 626.875L631.25 633.125L633.75 635L632.5 637.5L626.875 644.375L622.5 650.625L616.25 650L601.25 646.25L586.875 641.25L575.625 636.25L566.875 631.25L555 623.125L547.5 617.5L539.375 610L530 600.625L522.5 590.625L513.75 577.5L508.125 566.875L501.875 550.625L497.5 534.375L495.625 524.375L494.375 511.875L488.75 507.5L483.75 501.25L480 493.75L478.75 488.125Z" fill="url(#paint6_linear_35_2)"/>
<path d="M806.875 488.125H808.75L806.875 494.375L803.75 500.625L798.75 506.875L793.125 511.875L791.25 526.25L788.125 541.25L781.875 560L774.375 575.625L768.125 585.625L759.375 597.5L752.5 605L746.875 611.25L738.75 618.125L727.5 626.25L716.875 633.125L701.25 640.625L685.625 646.25L673.75 649.375L667.5 650.625H664.375L658.75 641.875L655 637.5L653.125 636.25L653.75 634.375L660.625 629.375L668.125 623.75L674.375 618.125L679.375 613.75L684.375 605.625L686.25 600L686.875 592.5L685 586.875L682.5 583.75L675.625 581.25L668.125 580L661.25 577.5L658.75 578.75L658.125 583.75L660 588.125L664.375 593.75L668.75 596.875V601.25L665.625 606.875L660 613.125L653.125 618.75L649.375 621.875L648.75 621.25V610L650 564.375L650.625 550.625L652.5 550L664.375 556.25L676.25 563.75L681.875 565.625H688.75L693.125 565L690 562.5L680.625 556.25L672.5 551.25L674.375 550.625L688.75 556.25L697.5 558.75L701.875 559.375H710.625L720 557.5L723.125 556.25L717.5 554.375L700.625 548.125L685 541.25L683.75 540L688.125 540.625L713.75 548.125L724.375 550.625L737.5 551.875L750 549.375L758.75 545L761.875 541.875L762.5 540.625L751.875 540L737.5 538.125L709.375 532.5L695.625 528.75L695 527.5H700.625L723.125 530.625L738.125 531.875H763.125L770.625 530L778.75 525.625L786.875 519.375L789.375 515.625L779.375 516.875H750.625L716.875 515.625L705.625 515V514.375L725.625 512.5L746.875 510.625L766.25 508.125L778.75 505.625L790 501.875L795.625 498.125L801.25 493.125L805 488.75L806.875 488.125Z" fill="url(#paint7_linear_35_2)"/>
<path d="M643.125 643.75L645.625 645L651.25 651.25L655 657.5L656.875 664.375V670.625L655.625 670L652.5 662.5L648.125 656.875L644.375 652.5L642.5 651.875L641.25 654.375L636.875 659.375L633.75 665L631.25 670.625H630L631.25 660L635 652.5L641.875 644.375L643.125 643.75Z" fill="#CADBF7"/>
<path d="M531.875 767.5H574.375L581.875 768.75L589.375 771.875L595.625 776.25L600 781.25L604.375 790L605.625 794.375V808.75L603.75 815L599.375 823.125L593.125 829.375L584.375 833.75L577.5 835.625H531.875L532.5 833.75L538.125 830.625L538.75 828.75V773.75L538.125 771.875L531.875 769.375V767.5Z" fill="#E1EAF8"/>
<path d="M368.75 767.5H370.625V768.75H371.875L378.75 779.375L388.125 794.375L396.875 808.125L400 813.125H401.25L406.875 803.125L412.5 793.75L422.5 777.5L428.125 768.125L430.625 767.5L432.5 776.875L437.5 815L439.375 828.125L441.25 831.25L446.875 833.75L448.125 834.375V835.625H416.875L417.5 833.75L421.875 832.5L421.25 821.875L418.75 798.75L415.625 803.75L406.25 820L400.625 830L397.5 838.125L395 836.875L387.5 823.75L372.5 798.75L371.25 807.5L368.75 832.5L374.375 834.375V835.625H352.5V833.75L359.375 831.25L361.25 823.75L364.375 798.125L368.125 769.375L368.75 767.5Z" fill="#E3EBF8"/>
<path d="M759.375 765.625H761.25L773.125 791.25L783.125 812.5L790 827.5L791.875 830.625L795 832.5L798.125 833.75L798.75 835.625H766.875L768.125 833.125L771.25 831.25L770.625 826.875L766.875 817.5V816.25L745 816.875L740.625 827.5L740 830.625L741.25 832.5L744.375 834.375V835.625H722.5L723.125 833.75L729.375 830.625L732.5 825.625L743.125 801.875L751.25 783.75L757.5 769.375L759.375 765.625Z" fill="#E4EBF8"/>
<path d="M555.625 771.875H569.375L576.875 774.375L581.875 778.75L585.625 785L588.125 791.875L588.75 797.5V806.25L587.5 813.75L585 820L580 826.875L575 830L570.625 831.25L565.625 831.875H555.625V771.875Z" fill="#031638"/>
<path d="M460.625 767.5H510.625L511.25 768.125V780.625L508.75 781.25L506.875 774.375L503.125 773.125L501.875 772.5L484.375 771.875V800.625L498.125 800L502.5 797.5L505 792.5H506.25V812.5H504.375L501.875 807.5L498.75 805.625L484.375 805L485 831.25H496.25L502.5 830L507.5 827.5L511.875 821.875L514.375 816.25H516.25V820.625L513.125 833.75L512.5 835.625H461.25V833.75L465.625 831.875L467.5 828.75L468.125 826.25V776.25L466.25 771.875L461.25 769.375L460.625 767.5Z" fill="#DDE7F8"/>
<path d="M657.5 767.5H707.5V781.25L705 780.625L703.125 775L698.125 772.5L680.625 771.875V800.625L695 800L698.75 797.5L701.25 792.5H702.5L703.125 793.75V812.5L700.625 811.875L698.75 807.5L695 805.625L681.25 805V831.25H693.125L701.25 829.375L706.875 824.375L711.25 816.25L713.125 816.875L711.875 824.375L709.375 835L708.75 835.625H657.5L658.125 833.75L662.5 831.25L664.375 828.75V774.375L661.875 771.25L657.5 769.375V767.5Z" fill="#E0E9F8"/>
<path d="M875 767.5H925L925.625 768.125V781.25L923.125 780.625L921.25 775.625L919.375 773.75L916.25 772.5L898.75 771.875V800.625L912.5 800L916.875 797.5L919.375 792.5H920.625V812.5L918.75 811.875L916.875 808.125L913.125 805.625L898.75 805L899.375 831.25H909.375L917.5 830L923.125 826.25L926.875 820.625L928.75 816.875H931.25L928.75 829.375L926.875 835L926.25 835.625H875.625L876.875 833.125L880 831.25H881.25L882.5 827.5V775.625L880.625 771.875L875.625 769.375L875 767.5Z" fill="#E1E9F8"/>
<path d="M827.5 767.5H846.875L853.125 768.125V773.75L851.875 783.125L850 782.5L846.875 776.25L841.875 773.125L839.375 772.5H833.125L828.125 774.375L825.625 777.5L825 778.75V783.125L828.75 787.5L846.25 798.125L852.5 802.5L856.875 806.875L858.75 811.25V820L856.25 825.625L851.875 830.625L846.875 833.75L840.625 835.625H822.5L814.375 833.125L810.625 830.625L809.375 827.5V823.125L811.875 815L815 814.375L816.25 820.625L818.75 825.625L821.875 828.125L828.75 830.625H836.25L842.5 828.125L845 824.375L845.625 820.625L843.75 816.875L838.75 812.5L825.625 804.375L818.125 799.375L813.75 795L811.25 789.375V781.875L813.75 776.25L818.125 771.25L821.875 768.75L827.5 767.5Z" fill="#E1EAF8"/>
<path d="M755.625 790.625L757.5 793.125L763.75 809.375L764.375 812.5H755.625L746.875 811.875L753.125 796.25L755.625 790.625Z" fill="#031638"/>
<path d="M596.875 899.375L598.75 900L598.125 903.75L595 904.375L594.375 902.5L595.625 900L596.875 899.375Z" fill="#AFCAF5"/>
<path d="M804.375 880H814.375V881.875L805 901.25L801.875 901.875L800 896.875L796.25 901.875L793.125 901.25L785.625 883.75L784.375 880.625H789.375L792.5 888.75L795 895V896.25L797.5 893.75L796.25 888.125L793.125 881.875V880.625H797.5L800.625 886.875L803.75 880.625L804.375 880Z" fill="#B9D1F8"/>
<path d="M411.875 880L413.75 880.625L408.75 889.375V893.75L409.375 895H410.625L415.625 883.125L416.25 881.25L415 880.625L420.625 880L420 882.5L412.5 898.75L410 901.875L407.5 901.25L406.25 896.875L404.375 898.75L402.5 901.875L399.375 901.25L396.25 895L391.25 883.75L390 880.625H395L398.125 887.5L401.25 895.625L403.125 895V890.625L399.375 881.875L398.75 880.625H403.75L405.625 887.5L406.875 886.875L408.75 880.625L411.875 880Z" fill="#AFCBF7"/>
<path d="M328.75 879.375H336.25L340.625 880.625L343.75 883.75L344.375 887.5L340.625 892.5L341.25 895L345 899.375L346.875 900.625V902.5L341.875 901.875L336.25 895.625L334.375 894.375L335 901.875L330.625 902.5L330 901.875L329.375 880.625L328.75 879.375Z" fill="#B2CDF7"/>
<path d="M465 880H468.75L469.375 880.625V890.625H481.25V880.625L481.875 880L486.25 880.625V902.5H481.875L481.25 901.875V896.25L481.875 893.125L469.375 892.5V901.875L468.75 902.5H465.625L465 901.875V880Z" fill="#AECAF7"/>
<path d="M739.375 880H743.125L743.75 883.125V890L755.625 890.625V880.625L756.25 880H760L760.625 880.625V901.875L760 902.5L755.625 901.875L756.25 893.125H743.75V901.875L743.125 902.5H739.375L738.75 880.625L739.375 880Z" fill="#B7D0F8"/>
<path d="M621.875 880L626.875 880.625V890.625H639.375L638.75 880.625H643.125V902.5H639.375L638.75 900.625L639.375 893.125H626.875V901.875L626.25 902.5H622.5L621.875 901.875V880Z" fill="#B5CFF8"/>
<path d="M903.75 880.625H914.375L918.125 883.75L918.75 888.75L915.625 892.5L911.25 894.375H908.125L908.75 901.875H903.75V880.625Z" fill="#ABC9F7"/>
<path d="M858.75 880H862.5L863.125 880.625V890.625H875.625L875 880.625L876.25 880L880 881.25V901.875L879.375 902.5L875 901.875L875.625 893.125H869.375L863.125 892.5V901.875L862.5 902.5L858.125 901.875L858.75 880Z" fill="#BAD2F8"/>
<path d="M953.75 879.375L955.625 880.027L963.125 901.544V903.5H959.375L958.125 902.848L956.875 897.632L949.375 896.98L948.75 902.848L944.375 903.5L945 900.24L951.25 883.939L953.125 880.027L953.75 879.375Z" fill="#B9D1F8"/>
<path d="M538.75 879.375L541.25 880.027L546.875 896.98L548.75 901.544V903.5H545L543.75 902.848L542.5 897.632H535.625L534.375 902.848L530 903.5V900.892L532.5 895.024L536.25 885.243L538.75 879.375Z" fill="#B2CDF7"/>
<path d="M313.125 879.375L315 880L321.875 898.75L322.5 902.5H318.75L317.5 901.25L316.25 896.875H309.375L307.5 901.875L304.375 902.5L303.125 901.25L306.25 895L310 885.625L313.125 879.375Z" fill="#B3CEF7"/>
<path d="M508.75 879.375H523.75V883.125L521.25 882.5L517.5 881.25L514.375 880.625V890.625L522.5 890V893.75L518.75 893.125L514.375 892.5L515 900H521.25L524.375 899.375L523.75 902.5H510L509.375 901.875L508.75 879.375Z" fill="#6BA0F1"/>
<path d="M649.375 879.375H665V882.5L663.125 883.125L661.25 881.875L655.625 881.25L655 890.625L663.75 890V893.125L661.25 893.75L655 892.5V900L665 899.375L665.625 901.875L665 902.5H650.625V880.625H649.375V879.375Z" fill="#B5CFF7"/>
<path d="M352.5 879.375H368.125V882.5L365 881.875L358.75 881.25L358.125 890.625L366.875 890V893.75H363.75L363.125 893.125H358.75L358.125 900L368.125 899.375L367.5 902.5H354.375L353.75 901.875L353.125 880.625L352.5 879.375Z" fill="#B8D1F7"/>
<path d="M575 878.75L588.75 879.375L589.375 882.5L587.5 883.125L583.125 881.25H580V890H588.125L587.5 894.375L585 893.75L584.375 893.125H580V900H589.375V901.875L588.75 902.5H575.625L575 901.875L574.375 879.375L575 878.75Z" fill="#B4CEF7"/>
<path d="M923.125 879.375H938.125V883.125L935 881.875L928.75 880.625V890.625L937.5 890V893.125L935 893.75L928.75 892.5V898.75L929.375 900H934.375L938.75 899.375L939.375 901.875L938.125 902.5H924.375L923.75 880.625L923.125 879.375Z" fill="#C2D7F8"/>
<path d="M995.625 879.375H1010V882.5L1006.25 881.875L1000.62 881.25V890H1008.75V893.75L1000.62 893.125L1000 900H1010.62V901.875L1009.38 902.5H996.25L995.625 900.625V879.375Z" fill="#BAD2F8"/>
<path d="M977.5 879.375H985L990 881.983V884.591L986.25 883.287L981.875 881.331L977.5 882.635L974.375 886.547L973.75 889.155V894.372L975.625 898.284L978.125 900.892L983.125 901.544L988.125 899.588H990.625L990 902.196L986.875 903.5H975.625L970.625 898.936L968.75 895.024V888.503L970.625 884.591L975 880.679L977.5 879.375Z" fill="#B7D0F8"/>
<path d="M680 879.375L681.875 880.027L688.125 898.284L689.375 901.544V903.5H685.625L684.375 902.196L683.125 897.632L675.625 896.98L675 902.848L670.625 903.5V900.892L673.125 895.024L674.375 891.764H675.625L676.25 890.459L677.5 891.111L676.875 895.024H682.5L681.25 891.764L680.625 885.895L677.5 887.199L678.125 882.635L680 879.375Z" fill="#BAD2F8"/>
<path d="M286.25 879.375H293.125L297.5 881.331L298.125 884.591L294.375 883.287L292.5 881.983L288.75 881.331L285 883.287L282.5 886.547L281.875 888.503V893.72L283.75 898.284L286.875 900.892L291.25 901.544L296.875 899.588H298.75L297.5 902.196L295 903.5H284.375L280.625 900.892L277.5 896.328L276.875 893.72V889.155L279.375 883.939L284.375 880.027L286.25 879.375Z" fill="#C7DAF7"/>
<path d="M560.625 879.375H566.25L568.75 880.679L569.375 883.939L566.25 883.287L564.375 881.983H560.625L558.75 884.591L559.375 887.851L567.5 892.416L569.375 894.372V899.588L566.875 902.848L565 903.5H558.75L555 902.196L555.625 899.588L558.125 900.24L563.75 900.892L565 900.24L565.625 897.632L565 895.676L558.125 892.416L555 888.503V884.591L558.125 880.679L560.625 879.375Z" fill="#BDD4F8"/>
<path d="M836.875 880.625L852.5 881.279L853.75 881.932V884.546L845 883.893L845.625 903.5H840.625L840 901.539L840.625 883.239L835 884.546H831.25L831.875 881.932L836.875 880.625Z" fill="#C5D9F9"/>
<path d="M713.75 881.25H733.75L734.375 884.522L725.625 883.213L726.25 902.846L725.625 903.5H721.25L720.625 901.537V883.213L716.25 883.868L715.625 884.522H712.5V881.904L713.75 881.25Z" fill="#C2D7F9"/>
<path d="M438.75 881.25H458.75L459.375 884.375L455 883.75L451.25 883.125L451.875 901.875L451.25 902.5H446.25V900V883.125H442.5L441.25 884.375H437.5L438.125 881.875L438.75 881.25Z" fill="#B8D1F8"/>
<path d="M696.25 880.625H701.25V900L711.875 899.375L711.25 901.875L708.125 902.5H696.875L696.25 900.625V880.625Z" fill="#C9DCFA"/>
<path d="M338.125 880L341.25 881.25L343.75 883.75L344.375 887.5L340.625 892.5L341.25 895L345 899.375L346.875 900.625V902.5L341.875 901.875L336.25 895.625L334.375 894.375L333.75 896.25V893.75H332.5V890.625H336.875L339.375 888.125V884.375L337.5 882.5L335 881.25L338.125 880Z" fill="#B8D1F8"/>
<path d="M428.125 880L432.5 880.625V901.875L428.125 902.5L427.5 901.875V880.625L428.125 880Z" fill="#A9C7F7"/>
<path d="M821.875 880H825.625L826.25 880.625V901.875L825.625 902.5H821.875V880Z" fill="#BAD1F6"/>
<path d="M615.625 394.375L617.5 395L622.5 403.75L637.5 428.125L643.125 436.875L644.375 437.5L645.625 434.375L653.75 420.625L663.125 405L669.375 394.375H670.625L675.625 431.25L678.75 450.625L681.25 453.125L685.625 454.375V455.625L683.75 456.25H661.25L659.375 455.625V454.375L664.375 451.875L661.875 428.125L660.625 420.625L658.125 423.75L647.5 441.25L641.875 450.625L640.625 455H639.375L636.875 450L628.75 437.5L620 423.75L618.125 420.625L617.5 421.875L614.375 450V452.5L619.375 454.375V455.625H600.625L601.25 453.75L606.875 452.5L608.125 450L611.25 426.875L615 400.625L615.625 394.375Z" fill="#031638"/>
<path d="M523.75 563.75L525.625 565.625L530.625 575L535 580.625L540.625 587.5L550 597.5L555 601.875L561.875 607.5L571.875 614.375L581.875 620L591.25 624.375L606.875 630L614.375 631.875L620.625 633.125L625.625 636.875L623.125 637.5L610.625 635L600.625 631.875L588.125 626.875L575.625 620.625L565.625 614.375L559.375 609.375L550 601.25L546.25 598.125L540.625 591.25L533.125 581.25L526.875 571.25L523.75 565V563.75Z" fill="#031638"/>
<path d="M763.75 561.875L764.375 563.125L758.125 575L750.625 585.625L743.75 593.75L738.125 600L728.125 609.375L720 615.625L710.625 621.25L698.75 627.5L681.875 633.75L668.75 636.875L665.625 637.5H661.25L664.375 635L669.375 632.5L678.75 630.625L693.125 625.625L711.25 616.875L721.875 610L730 603.125L735 598.75L740.625 593.75L745 588.75L751.25 581.25L758.125 571.875L763.75 561.875Z" fill="#031638"/>
<path d="M635.625 367.5H650.625L668.75 370L681.875 373.125L694.375 377.5L710 385L719.375 391.25L727.5 397.5L735 404.375L744.375 413.75H742.5L733.75 405L727.5 400L716.875 392.5L708.125 387.5L695.625 381.875L680.625 376.875L666.25 373.75L650.625 371.875H631.25L615 374.375L599.375 378.75L583.75 385L571.875 391.25L560.625 399.375L553.75 405L547.5 410.625L545 411.875L548.75 407.5L558.75 398.125L565 393.125L578.75 384.375L589.375 378.75L601.875 373.75L616.875 370L628.75 368.125L635.625 367.5Z" fill="#031638"/>
<path d="M678.75 888.75H680.625L682.5 894.375H676.875L678.75 888.75Z" fill="#031638"/>
<path d="M538.75 888.125H540L541.25 891.875V894.375H535.625L538.125 888.75L538.75 888.125Z" fill="#031638"/>
<path d="M312.5 888.125H313.75L315.625 894.375H310L310.625 891.25L312.5 888.125Z" fill="#031638"/>
<path d="M908.125 881.875H911.875L914.375 884.375V889.375L911.875 891.875L908.75 892.5L908.125 891.875V881.875Z" fill="#031638"/>
<path d="M334.375 881.25L338.75 882.5L340 884.375V888.125L336.875 891.25L335 890.625L334.375 889.375V881.25Z" fill="#031638"/>
<path d="M952.5 888.125L954.375 888.75L955.625 891.875V894.375H950L952.5 888.125Z" fill="#031638"/>
<defs>
<radialGradient id="paint0_radial_35_2" cx="0" cy="0" r="1" gradientUnits="userSpaceOnUse" gradientTransform="translate(643 670) rotate(90) scale(53 119.695)">
<stop stop-color="#2F79ED"/>
<stop offset="0.515803" stop-color="#8CB7F9"/>
<stop offset="1" stop-color="#2F79ED"/>
</radialGradient>
<linearGradient id="paint1_linear_35_2" x1="643.438" y1="354.375" x2="643.438" y2="548.125" gradientUnits="userSpaceOnUse">
<stop stop-color="#1364E5"/>
<stop offset="1" stop-color="#AEC9ED"/>
</linearGradient>
<linearGradient id="paint2_linear_35_2" x1="467" y1="446" x2="572" y2="500" gradientUnits="userSpaceOnUse">
<stop stop-color="#5F92E4"/>
<stop offset="1" stop-color="#94C7FA"/>
</linearGradient>
<linearGradient id="paint3_linear_35_2" x1="464" y1="402" x2="567" y2="482" gradientUnits="userSpaceOnUse">
<stop stop-color="#3F84EA"/>
<stop offset="1" stop-color="#97CFF4"/>
</linearGradient>
<linearGradient id="paint4_linear_35_2" x1="820" y1="445" x2="714" y2="500" gradientUnits="userSpaceOnUse">
<stop stop-color="#5F92E4"/>
<stop offset="1" stop-color="#94C7FA"/>
</linearGradient>
<linearGradient id="paint5_linear_35_2" x1="823" y1="404" x2="720" y2="482" gradientUnits="userSpaceOnUse">
<stop stop-color="#3F84EA"/>
<stop offset="1" stop-color="#97CFF4"/>
</linearGradient>
<linearGradient id="paint6_linear_35_2" x1="601.5" y1="536.5" x2="603.5" y2="651" gradientUnits="userSpaceOnUse">
<stop stop-color="#A4C2F3"/>
<stop offset="0.413" stop-color="#C0D4F4"/>
<stop offset="1" stop-color="#F1F2F6"/>
</linearGradient>
<linearGradient id="paint7_linear_35_2" x1="696.5" y1="533" x2="696.5" y2="651" gradientUnits="userSpaceOnUse">
<stop stop-color="#A4C2F3"/>
<stop offset="0.393" stop-color="#CBDAF5"/>
<stop offset="1" stop-color="#F1F2F6"/>
</linearGradient>
</defs>
</svg>
